<svg xmlns="http://www.w3.org/2000/svg" width="700" height="685" fill="none" viewBox="0 0 700 685"><g id="loader-frame-010" visibility="visible"><g clip-path="url(#loader-f010__a)"><path fill="#fff" d="M0 0h700v684H0z"/><path fill="#fff" d="M8.2 4.8c28.2.4 58.2 0 86.5-.1h597.2v673.6l-.2 1.6c-1.4.5-28.3.2-31.9.2H527.5l-519.3.1V66.3c0-20.2.4-41.4 0-61.5"/><path fill="#121211" d="M211 398.6c7.3-4 10.9-3.4 17.4-6.4 3.9-1.8 9-8 14.4-11 7.3-4 12.8-3.5 19.4-6.3 5.3-2.5 10.3-6.8 16-8.5 9.4-2.7 19.7-4.6 29.3-6.6 2.6-.6 5.9 0 8.4-.4 3.8-.8 7.5-2.2 11.2-3.2a132 132 0 0121.5-3.8 211 211 0 0147.5 1.1c12.4 1.7 23 3.7 35.7 4.4a136 136 0 0152.8 14.3v-4.9c2.2-1.4 6.6-4.3 9-4.5a375 375 0 0165.3 1.4q18.6 1.3 37 5.3c6 1.4 12 3.8 15.5 9.4 7.5 12.2 3.9 26.1 2.6 39.4-1 11.2-3.4 22-5.3 33l-4 23c-.5 2.6-2.2 15.2-3.7 16.5-3 .4-8.1-2.1-12-3-6.8-1.5-10.4 2.6-16.3 0-.4-.2-1.6-1.6-2-2-.3 1.5-.2 2.4-1.8 3-2.9-1-4.2-9.1-5.1-12a179 179 0 00-6-16 166 166 0 00-43.4-61.3c-10-8.7-16.3-14-28.1-20.8a121 121 0 00-49.6-15.7c-6.4-1.2-15.5-.6-21.6-1.8-33.1-6.3-67.2-8.6-99.5 3-3 1-6.5-.8-9.6-.3-7.7 1.2-13.7 5.2-21.7 5-3.1 1-10.4 3.7-12.7 5.7-8 6.7-16.2 5.6-25 9.6-6.1 2.6-9.8 8.5-15.2 11.6-2.7 1.6-8.8 2.8-12 3.6 6.1.7 13.2 1 19 1.8 6.1.8 7.3 12 9 17.3a39 39 0 0115.7-12.9c-3-1.1-11.4-3-12.9-4.8-.9-5 18.5-9.1 22.6-10l3-.7a59 59 0 0119.5-3.2c-4.2-5.2-14.9-12.8-1.4-12.7q16.8.3 32 7.5c-1.2-3-3.3-7.5-2.4-10.6q.5-1 1.6-1c5.2 1.1 14 11 17.2 14.5 4.5-.5 8-.2 12.6.1 3.9-4.7 13.8-8.2 19.8-8.5 25.9-1.2 35.4 20 37.8 42.5a71 71 0 01-10.8 47.4c-1 1.6-3.3 3-4.1 4.7v.6c1 7-5.6 14-12.4 14.9h-.5c-1.3 3-6.5 9.1-9 11.8-.7.7-4 3.3-5.2 4.2 6.7 1.7 19 3.8 26 4 4.5 0 10.6-.9 15.4-.8-1.7-1-4-2-5.2-3.2l-.1-.8c.3-.5.8-1.2 1.4-1 5.4.7 15.2 4.8 20.3 6.3 10.2 3.1 13 1.3 22.5.7-1-7 .4-12 .4-18.3 0-5-2-14-.7-19.1l.8-.2-.7.1h.8c1.6 3 1.6 6.2 2.5 9.5a90 90 0 013.2 16.4c0 .4 1.8 3.6 2.1 4.2 5.7-4.6 4.2-5.6 8-10.4a44 44 0 0142.5-16.7c2.7.5 15.6 2.8 15.3 6.5-1.3 1.3-2.6.8-4.2.2a44 44 0 00-48 8.8 34 34 0 00-3.4 4.1c2-1.2 6.8-4.5 9.1-3.6.8 3.7-27 11.9-24.4 35.5 6-5.9 4.2-12.1 14.9-15.5 10-3.2 19-3.6 28.6.8 11.5 5 22.5 20.5 17.1 33.3a15 15 0 01-6.3 6.5c4.7.6 8.8.1 12.9-2.7 4-3 6.7-11.3 9.7-13.2l.6.2c.4 2.5 0 3.3-1 5.5 7.6-7.5 6.3-15.2 5-25-.4-3.4-4.5-5.4-.8-7.2 2-3 .2-7.2 1-9.6 1.8-5.2 15.4-7.1 20.2-7.6-2.2-9.4-1.7-8.2-6.5-16.5a71 71 0 01-12.3-10.9c0-1.2-.2-.7.4-1.7 2.3-.4 5.6 2.7 7.5 4.2a44 44 0 00-12.8-24.8c-.9-1-1.7-4.7-2.4-6-1.3-2.4-3.5-3.7-3.6-6.5l.4-.4c4.3.6 7 9.2 9.4 11.6 9.6 9.6 12 16.3 13.3 29.8 6.5 6.1 9.7 12 11 20.9 11-.3 28.7 0 37.4 7 1.1 3.6.9 4.8.6 8.6 19.6.6 16.6 28.5 2.5 34.5-2 .8-7.7.7-8.5 2.6 1.1 1.2 10 2.2 15.5 7.6 2.8 10.1-7.5 12.8-15.4 14.5a113 113 0 01-54.8-2.1c-13.6-4.2-13.8-15 .1-18.8 1 .3 2.1.8 3 .5.3-.6-1.8-6.3-2-8.2-1.2 1.7-2.4 3.7-3.8 5.1-2.4 2.4-6 3.3-8 6-6.4 8.6-16.5 7-25.8 6.3l-5.7-.1c-4.6 2.7-12.5 6-17.5 8.6-3.6 1.8-12.2 6.2-15.7 7.4a37 37 0 01-21.6 19.2 33 33 0 00-9 5.3c-7.1 7.1-8.4 17-19.4 19.6-4.8-1.5-6.2-3.3-4.5-8.5l-.3-.6c-4.4 6-9 12.8-17.3 9-2-2.6-1.7-3.2-1.3-6.3a16 16 0 01-8.5 5c-10.2-3-7-7.6-2.6-14.5a19 19 0 01-9.6 4.4c-12.7-4.7-.8-14.7 4.7-20.5-6.5-7.3 1.2-11.1 7.2-13.4 3.2-1.7 7.5-3.2 10.7-5.1 5.7-3.5 9.3-7.1 15.7-9.6-5.6-1-34.1-4.7-37-7-.6-.4-.6-.5-.7-1.3 1.8-4 11.4-5 15.7-7 0-.1.6-1.4.8-1.5a898 898 0 0155.4-17.8c1.7-.5 8 .8 9 1 .3-3.5.7-5.1 1.9-8.3-9.7 1.9-14.5 3-24-.1-3-1-8.4-2.2-11.5-2.1-8 .1-17.7 2-25.7 1.1-8.7-1-14-3.4-23.2-2.6-1-.5-.7-.5-1.3-1.8-.6-.2-4.6.8-6.7 1h-.6c2.2 1.3 5.7 2.9 5.3 5.8-3 3.8-20 .8-24.6-1.3-1.5.4-5.7 1.2-6.5 2a3 3 0 002.2 1.3c10.4 2 21 3 31.3 5.2.7.2 3.6 1 3.8 1.7.9 2.6.7 6.4 0 9-.1.4-1.7 1.1-2 1.2-8.7 2.5-18.3 4-27 5.9l-43 9.3-20.1 4.8c-3 .7-3.5-1-4.7-1-6.5.2-12.9-1.1-19.3-2.1a3094 3094 0 00-81.2-11.6c-19.1-2.5-44.3-4.8-62.7-9.4a37 37 0 01-8 11.3c-4.9 5.3-8 11.3-15.1 13.6l-4-1.2c-6-7.3.2-13.9 5-19.7-6.5 4-11.1 8-17 12.8-6.4 5.4-10 11.4-18.4 14-4.3-1.2-6.2-2-5.8-6.8-3.3 2.2-6.3 3.7-10.4 3.1-3-.3-4.9-3-3.3-5.8.4-.6.1-.9 0-1.5l-.6-.3-2.2.2c-11.1-2.7.4-12.3 4.1-15.7-2.1.8-5.5 2-7.7 1.2-5.1-1.8-4.8-6.3-.7-9.1 5.7-4 11.4-7.5 17-11.5 7.3-5.4 13-11.2 21.4-15.1-2.3 0-13.5 1.7-12.3-2.2 3-2.4 13.5-1.2 17.6-1.7 1.9-.3 5.7-1.9 7.5-2.6q5-7.3 10.8-14c1-1.3 1.6-2 1.2-3.7-.4-1.4 1.3-3.4 1.2-3.6-6-21.7-14.6-55.8-20.3-76.1 1.6-3.8 2.4-5.8 6.9-5.8q7.2.2 14.5 1l23.7 2 57 4.7z"/><path fill="#e6912e" d="M484.6 367.3c2.2-1.4 6.6-4.3 9-4.5a375 375 0 0165.3 1.4q18.6 1.3 37 5.3c6 1.4 12 3.8 15.5 9.4 7.5 12.2 3.9 26.1 2.6 39.4-1 11.2-3.4 22-5.3 33l-4 23c-.5 2.6-2.2 15.2-3.7 16.5-3 .4-8.1-2.1-12-3-6.8-1.5-10.4 2.6-16.3 0-.4-.2-1.6-1.6-2-2-.5-3-1.2-5.5-2-8.5a182 182 0 00-52.2-82.2 154 154 0 00-32-22.9z"/><path fill="#121211" d="m272.8 390.8 3-.7c1.7 1.5 3.4.6 4.6 1.6v.8c-1.9 2.2-4.6 2.4-7 1-.7-1-.6-1.5-.6-2.7m134.7 213.4c.3-.8 1.4-3.2 1.8-3.8h1v-.5h-.5.4c-.1 1.6-1.4 3.6-2.4 5z"/><path fill="#fff" d="M75.5 391.4c3.5-.2 9.8.6 13.5 1l18 1.8a3043 3043 0 0182 6.7l31.2 2.8c5 .4 11.7 1 16.6 1 .8.5 3.1 1.8 3.4 2.6 2 5.3 3.4 13.6 4.6 19l8.5 35.5c1.9 8 20.3 82.8 19.7 85.3A3484 3484 0 00150.8 530l-27.8-3.8c-4.6-.6-9-1.6-13.8-2-.6-4.5-1.8-7.8-3-12.1l-6.2-22.8-14.2-53q-5.9-20.7-11.1-41.6c-.4-1.5 0-2 .8-3.2"/><path fill="#e6912e" d="M162.8 451.6c2.6-.2 4.4 0 6.8 1a16 16 0 018.7 9c2.7 7 0 13.4-7.2 15.7-15.2 2.1-24.4-20.4-8.3-25.7"/><path fill="#fff" d="M481.3 511.2c12.6-1.1 24 6.5 28.7 18-.5 4-1.6 8.2-2.4 12.3l-33 17.1c-2.1 1-9.2 5-10.8 5.6l-1.5-1c-2.8.3-5 6.2-6.7 8.5-1.3 1.8-1.4 1.8-2.7 3.3-6.8 7.7-16.1 8.6-23.4 14.7-3.3 2.7-5.2 6.2-7.5 9.7-1.8 2.6-7 11.2-10.7 8.5-.8-2.2 5.7-14 7-16.7 1.4-2.7 4.6-5.9 5.6-9.3l-.5-.5c-.7 0-1.5-.1-2 .5-4.5 4.7-8.9 10-13.3 14.7-3.2 3.4-9.3 15-15 13.2-1.7-3 8.6-17 10.3-20.4 1.3-2.7 8.8-9.6 9-12.1-1-1-.4-.7-1.8-1.1-3.1 2.7-5.5 6.1-8.5 8.8-7.2 6.4-11.8 15.2-19.2 21.2-1 .9-3.9 1.2-4.7-.4 0-5.1 14.6-24.7 19.3-28.3 1.7-1.3 5.5-4.7 4-7-5.2 0-31 34.3-34.7 25.1.3-2.2 2.6-4 4-5.7 11.1-14.1 28.2-31.2 45.7-36.7 15.6-5 16-4.3 28.3-15.3q10.2-9.1 20.2-18.4c7.6-7 5.6-7.3 16.3-8.3m65.9 37.3-.6-.4v-.7c-.7-2.5-3.4-7.9-4-10.1-1.4-6.2-4.4-30.7-3.3-36 .7-.8 1.1-1.2 1.5-2.1l-.4-1.3c1.7-2.3 10.1-3.6 12.9-4a90 90 0 0133.5 1.6c5.6 1.3 8.2 1.5 7.8 8-.6 8.7-2.6 42.8-11.7 45.9a54 54 0 01-27 1c-2.4-.4-6.4-2-8.7-2"/><path fill="#121211" d="M549.2 500.5c5.3-3.4 30.8-3 36.3.3 2.6-.7 4.5-1.5 7.1-.6v.8c-7.3 5.8-46.3 6.3-51-1.2l.2-.7c2.7-1.6 3.9 1.2 7.4 1.4"/><path fill="#e6912e" d="M549.2 500.5c5.3-3.4 30.8-3 36.3.3-8.5 2.8-27.4 2-36.3-.3"/><path fill="#fff" d="m92.3 477.8.4.2 3.8 13.8 5.2 19.4c4.7 17.8 7 14.6-6.4 29-2.2 2.3-5.9 8.1-9.2 7.6-5.4-4.7 9.3-16.6 8.1-24.2-.7-1-.3-.6-1.7-1-1.4.6-1.9 2-2.6 3.4-11.8 5.7-21.2 14.7-30.7 23.4-2 1.9-5.2 5.2-8.2 4.1-3.3-4.7 22.5-25.8 22.7-30l-.6-.5c-3.5-.4-20.1 18.3-23.3 21.2a40 40 0 01-7.7 5.5c-1.7.8-4.5 1.7-5.6-.4.3-3 20.3-23 23.7-25.8 1.2-1 2.3-2.3 1.8-3.9-6.7-1-25.6 28.4-32.5 23.3-.5-3 12.1-13.6 14.2-16.4 1.6-2.2 11.1-7.6 9.4-10.7-2.9-.4-23.1 18.9-26.4 12 .9-1.6 4.7-3.7 6.3-4.7a161 161 0 0016-10.7c5-3.8 7.6-6.3 13.1-9.7 3.7-2.3 15.6-8 18-10 1.9-1.6 9.5-11.8 12.2-14.9M376.8 382c13-.2 16.3 4.4 25 12.3.8 3 2.3 5.7 3.2 8.5 6.8 21.8 5.3 45.9-9.7 63.8-4.2-3.2-5.4-2.4-9.8 0l.8-5.5c2 .8 2.5 1.3 4.2.3 1.4-2 .2-6.1-.2-8.8-1-5.1-1.7-8.7-3.4-13.7 2.1 1 5 2.8 7 1.9 3.2-4.7-7.8-19.3-11.2-23.2 2.8-1 5.1-.9 7.6-2.6.5-1.6-1.3-3.4-2.5-4-8-4.6-16.7-11.6-25-15.4 2.4-1 7.5-2.8 7.1-5.7-1.6-1.8-7.2-3-9.9-3.7a46 46 0 0116.8-4.2m212.8 166.2c.2-.3.8-1.4 1.2-1.4 3-.2 6.2 1.6 8.9 2.3 3.4 1 6.6 5.3 2.4 7.5-14.3 7.3-34.5 6.7-50.1 4.7-6-.8-15.6-2.7-19.3-6.8-3.5-3.9 5.9-7.6 9.3-7.3 1 .5 1.1.9 1.7 1.7 1 .5 1.2.5 2.2.6.4.7.3.8.4 1.7.1-1.2.1-1.8.9-2.7 2.3-.1 6.3 1.5 8.7 2 10.1 2 17.3 1.4 27-1.1 1.6.4 1.5.4 3-.6l.4.2c.2 1.5.3.8-.3 2.1-1.6 1-3 1.2-4 2.7 3-1 6-3 7.6-5.6"/><path fill="#e6912e" d="M589.6 548.2c1.7 2 6.4.3 7.1 4.4-2.8 8.4-52.7 6.7-57.3-.7 0-2.1 2.6-2.6 4.3-3 1 .5 1.2.5 2.2.6.4.7.3.8.4 1.7.1-1.2.1-1.8.9-2.7 2.3-.1 6.3 1.5 8.7 2 10.1 2 17.3 1.4 27-1.1 1.6.4 1.5.4 3-.6l.4.2c.2 1.5.3.8-.3 2.1-1.6 1-3 1.2-4 2.7 3-1 6-3 7.6-5.6"/><path fill="#121211" d="M547.2 548.5c2.3-.1 6.3 1.5 8.7 2 10.1 2 17.3 1.4 27-1.1 1.6.4 1.5.4 3-.6l.4.2c.2 1.5.3.8-.3 2.1-1.6 1-3 1.2-4 2.7-7.3 2.6-29.7 2.2-35.7-2.6.1-1.2.1-1.8.9-2.7"/><path fill="#fff" d="M441.8 521.7c2.5.7 5.7 1 8.3 1.4l.8 4.2c-6.5 5.2-15.6 14.7-22.6 18-6.6-1.7-17.2-3.3-24.2-4.5a177 177 0 00-14.6-2.3c17-6 35-10.7 52.3-16.8"/><path fill="#e6912e" d="M287.4 514.6c-.5-1-.7-1.4-.8-2.4l.4-.4c1.7.6 4.8 3 6.6 4.2 7.5 3.2 9.2 4 17.6 2.9h.6c3-2 .5-3.5 2.5-3 6.2 1.9 11.2 4.8 18 4.7-1 2-3.6 2.2-5.5 2.4.5.8 1.4 1.9 1.6 2.7l-.4.6c.5 1 1 1 2 1.6l-6.7 1.5c-15.9 3-31.7 6.8-47.5 9.9l-1.6-6.8 4 1c11.3-3.4 23.9-5 35.3-7.6 1-1 .6-.7 1-2.2-7.5-2-19.4-4-27.3-5.5.2-1.4.2-2.2.2-3.6"/><path fill="#e6912e" d="M287.4 514.6c-.5-1-.7-1.4-.8-2.4l.4-.4c1.7.6 4.8 3 6.6 4.2 7.5 3.2 9.2 4 17.6 2.9h.6c3-2 .5-3.5 2.5-3 6.2 1.9 11.2 4.8 18 4.7-1 2-3.6 2.2-5.5 2.4-1.6-.9-2-1.1-3.6-1.6-3.8.2-9.3-1.5-13.2-1.5l-6.3.5c2.2 1.3 10.2 1.7 10.8 3.1v.2c-7.5-2-19.4-4-27.3-5.5.2-1.4.2-2.2.2-3.6"/><path fill="#fff" d="M311.8 518.9c3-2 .5-3.5 2.5-3 6.2 1.9 11.2 4.8 18 4.7-1 2-3.6 2.2-5.5 2.4-1.6-.9-2-1.1-3.6-1.6-4.1-1.8-7.6-1.4-11.4-2.5m-24.4-4.3c-.5-1-.7-1.4-.8-2.4l.4-.4c1.7.6 4.8 3 6.6 4.2-1.1 0-4.7-1-6.2-1.4"/><path fill="#e6912e" d="m276.1 542.2 5.3-1q42.6-9 85.6-17c0 1.4.2 2.5-.3 3.6-1 .9-2.3.8-3.6 1-6.4 1.7-17.8 3.7-24.9 5.2a3877 3877 0 00-57.4 12.8q-2 .5-3.9 1.2c-.2-2.2-.4-3.8-.8-5.8"/><path fill="#fff" d="m276.1 542.2 5.3-1q42.6-9 85.6-17c0 1.4.2 2.5-.3 3.6-1 .9-2.3.8-3.6 1-4.9-1.6-15.8 1.4-21.3 2.4L307 538l-17.9 3.4c-2.2.4-6.2 1-8.2 1.8-.7 1.3-.5 2-.2 3.6q-2 .5-3.9 1.2c-.2-2.2-.4-3.8-.8-5.8M389.5 468c6.8.6 4.6 6.8 1.6 10.4a16 16 0 01-5.6 4.5c1.5-1.7 3.8-3.6 3.7-6l-.6-.2c-3.3 1.1-5.1 4.4-7 7.2-1 2-3.6 7.7-6.6 5.6-1.8-3.7 1.7-10 3.9-13.2 2.7-4 6.3-6.1 10.6-8.3m-3.2 72.5 7.9 1.8 27 5c-1.6.6-8.6 3.2-9.4 3-2.9-.7-7-1.2-10-1.8a724 724 0 00-26.6-4.1c4.3-1.2 7.1-1.9 11.1-4m-51-20.8.2-1.1c1.3-.3 21.7 3.2 25 3.8q-4 1-8 1.7c-7.4 1.1-15 2.9-22.4 3.9-1.2-.7-1.6-.6-2.1-1.6l.4-.6c-.2-.8-1.1-1.9-1.6-2.7 2-.2 4.6-.4 5.4-2.4 1.6 0 2.2.2 3.2-1"/><path fill="#e6912e" d="M335.4 519.6c1 1.5 2.7.8 3.9 2.2-.8 2.8-8.4 2-10.9 3.9-.2-.8-1.1-1.9-1.6-2.7 2-.2 4.5-.4 5.4-2.4 1.6 0 2.2.2 3.2-1"/><path fill="#fff" d="M598.4 508.9c13.2-.7 13.6 22.2-.7 27.9-1.4.4-2.2.7-3.3.2-.4-1.1.1-2.2.5-3.4l1.4-.5c6-2.3 9-10.4 6.5-16.3-1.1-2.6-2.3-2.8-4.7-3.7-.4-1 .1-3 .3-4.2m-292.2-96.6 2 .2c2.3 3.5-14.3 11.1-16.9 12.8-.7.4-.7.4-1.5.5l-.4-.6c0-5.5 12-11.6 16.8-13m4.4 7.2 1.2.6.1.8c-1.4 3.5-7.6 9-10.5 11.8-1.1 0-.7.2-1.4-.5-.4-4.5 6.8-11 10.6-12.7"/><path fill="#fff" d="M598 516c5 2.3 2.7 10-.5 13.2-.8.5-.9.7-1.7.6A63 63 0 01598 516"/><path fill="#e6912e" d="m274.1 510 6.4 6.8-10.6-2c-.2-1.4-.4-3.2-1-4.4 1.8-.1 3.8.3 5.2-.5"/><path fill="#fff" d="M267.5 504.6c1.3-1.4 1.5-2 2.3-3.8 1 2.8 2.8 6.6 4.3 9.1-1.4.8-3.4.4-5.1.5zm52-79.9.9.7c1 2.9-1.2 6.8-3.2 8.7l-1-.5c-.7-2.7 1.3-7 3.3-8.9m-29 98.5a42 42 0 0113.2 1.7v.4l-1 .1-2.5.5c-1.7.2-9.4-1.4-10.4-2.2zm79.4-34.5c2 1.3-.2 2.7 4.5 5 0 .7-.6 1-1.3 1.9l-2.7 2q-.8-4.3-.5-8.9m12.5 82.2.2.4-7.2 6.8v-.2c-.7-1.1-.8-1.3-.6-2.6 1.4-2.3 5-3.3 7.6-4.4m-99-44.8c2.2.2 6.1.5 8 1.3v.3l-1.6.4c-2.3.4-6.6.7-8.4-.9.4-.8.9-.7 2-1m-1.2-5.5c1-.3 3.2 0 4 .8-.7.7-1.6.6-2.8.7-1.7.5-4.4 0-6.2-.1q2.4-.8 5-1.4"/><path fill="#e6912e" d="M272 524.4c2 0 4.5.2 6.3.9l.1.6c-2.7.4-5.2 1.5-6.4-1.5"/><path fill="#fff" d="M270.7 519.2c1.4 0 4.1.3 5.5.8v.5q-2 .6-4.1.6c-1.2-.7-.8-.3-1.4-1.9m2.7 9.7c2 .1 3.2.1 5.3.8v.6c-2 .4-5 1.3-5.3-1.4"/><path fill="#121211" d="M510.4 352.2c11-.4 22 .2 33 .7 18.2.8 37.2 2.3 55 6.2 9.7 2.2 20.8 6 26.2 15 2.8 4.6 4.6 11 4.5 16.4-.2 12.2-2.6 25.2-4.7 37l-6.1 34.6-4.5 24.6c-.7 3.5-1.9 14.5-4.7 16.2-1.3 0-.6.1-1.8-.8a4 4 0 01-.3-2.3c2.2-11.3 4-22.7 6.3-34a2085 2085 0 008.4-47.5c1.4-8.6 3-17.5 3-26.3a36 36 0 00-1.5-11.2 23 23 0 00-12.2-13.2c-20.4-10.3-95.7-14.2-118.7-10-3.4.6-8.7 1.3-11.7 3-2.6 1.5-5 3.8-7.8 4.8-1.2-.3-.8 0-1.4-.9.4-10 31.5-11.6 39-12.3m-88.5 57c.5.1 1.6.3 1.8.8 6.8 23.8-1.1 56.5-20.8 70.6-1-.2-1.1 0-1.8-.8 0-1.7 2-2.6 3.3-3.7a41 41 0 005.3-5.5c10-12.6 13.8-33 13.3-48.8-.1-3.6-1.7-9.2-1-12.5m24.2 7.9c1.2.8.8.3 1.3 1.4-.5 2.5-2 4.6-3 7a66 66 0 001.9 53.2c1 2 2.2 3.4 3 5.6-.3 1.1-.4.9-1.4 1.8-10.5-10.3-12.8-31.3-10.6-45.1 1.1-6.8 4-18.8 8.8-23.9"/><path fill="#121211" d="M478.2 404.4c.9.5.5.2 1 1.2-.6 1-2.7 2.2-3.8 3-17.7 10.5-25.5 33.3-25 53 0 .9-1.3 1.2-2 1.4-3.6-7.1 1.4-25.4 4.6-32.4a46 46 0 0125.2-26.2m137.5 109.8c6.4-.3 40 0 44.2 2 .7 1.2.5.6.5 1.8-.7 1-1 1-2.2 1.5-6.3-.1-41.8-.8-44.5-2.8q-.5-.4-.5-1c1-1.2.9-.9 2.5-1.5M375.1 364.9a38 38 0 0120.6 3.6c1.4.8 3.3 1.3 3.8 3q-.2.8-.9.8c-3.5-.7-6-2.7-9.7-3.3-9.5-1.6-16.8-1-25.6 2.2a59 59 0 00-16 10.5c-.5.4-1 .1-1.5 0l-.1-.7a6 6 0 011-2c8-9 16.9-13 28.4-14.1m126.2 90.9c1.7.3 1.3 0 2.4 1v.7c-1.5 1.7-8.3 2.5-10.6 3.5a46 46 0 00-25 22.2c-1.2.4-1.5.4-2.3-.4-.3-1.9 1-4.2 2-5.8a47 47 0 0133.5-21.2m-6.8 28a46 46 0 0131.5 9.4c1.5 1.2 4 3.7 4.2 5.5-1.5 2.2-5.8-2.2-7.4-3.4l-.4-.3a43 43 0 00-34.8-7.3c-1.3.4-1.7.3-2.8-.5v-.5c1.8-1.8 7.2-2.5 9.7-2.9"/></g><defs><clipPath id="loader-f010__a"><path fill="#fff" d="M0 0h700v684H0z"/></clipPath></defs></g></svg>